<svg baseProfile="tiny" xmlns="http://www.w3.org/2000/svg" viewBox="0 0 386.038 132.56"><path fill="#ECEEF7" d="M11.045 130.505c-4.958 0-8.99-4.034-8.99-8.992v-110.469c0-4.957 4.033-8.989 8.99-8.989h363.946c4.958 0 8.992 4.033 8.992 8.991v110.467c0 4.958-4.034 8.992-8.992 8.992h-363.946z"/><path fill="#C2CCDC" d="M374.991 4.11c3.829 0 6.937 3.105 6.937 6.936v110.467c0 3.832-3.108 6.937-6.937 6.937h-363.946c-3.829 0-6.936-3.105-6.936-6.937v-110.469c0-3.83 3.106-6.934 6.936-6.934h363.946m0-4.11h-363.946c-6.09 0-11.045 4.954-11.045 11.044v110.469c0 6.091 4.955 11.047 11.045 11.047h363.946c6.091 0 11.047-4.956 11.047-11.047v-110.467c0-6.091-4.956-11.046-11.047-11.046z"/><path fill="#fff" d="M374.991 5.707c2.945 0 5.34 2.395 5.34 5.339v110.467c0 2.945-2.396 5.34-5.34 5.34h-363.946c-2.944 0-5.339-2.396-5.339-5.34v-110.469c0-2.943 2.395-5.337 5.339-5.337h363.946m0-1.597h-363.946c-3.829 0-6.936 3.104-6.936 6.934v110.469c0 3.832 3.106 6.937 6.936 6.937h363.946c3.829 0 6.937-3.105 6.937-6.937v-110.468c0-3.83-3.108-6.935-6.937-6.935zM94.97 76.548l1.589-12.327h-12.205v-7.872c0-3.568.991-6 6.107-6l6.529-.003v-11.025c-1.128-.151-5.004-.487-9.512-.487-9.411 0-15.855 5.745-15.855 16.295v9.092h-10.642v12.327h10.643v31.629h12.731v-31.629h10.615z"/><path fill="#3B5999" d="M105.167 26.498h-72.662c-2.493 0-4.509 2.018-4.509 4.508v72.664c0 2.49 2.017 4.508 4.509 4.508h39.118v-31.63h-10.642v-12.327h10.643v-9.092c0-10.55 6.444-16.295 15.855-16.295 4.508 0 8.384.335 9.512.487v11.024l-6.529.003c-5.116 0-6.107 2.432-6.107 6v7.872h12.205l-1.59 12.328h-10.616v31.629h20.812c2.491 0 4.509-2.018 4.509-4.508v-72.663c.001-2.49-2.017-4.508-4.508-4.508z"/><path fill="#3A5A98" d="M130.06 32.077h14.701v3.746h-10.425v5.831h8.481v3.711h-8.481v8.799h-4.276v-22.087zM149.855 34.904c-1.625 0-2.544-.99-2.544-2.509 0-1.484.919-2.509 2.544-2.509 1.661 0 2.58 1.025 2.58 2.509 0 1.519-.919 2.509-2.58 2.509zm-2.084 19.26v-16.186l4.17-.601v16.786h-4.17zM166.585 54.164v-9.93c0-2.403-.954-3.216-2.827-3.216-1.449 0-2.792.742-3.604 1.52v11.626h-4.17v-16.221l4.17-.565v2.58c1.449-1.59 3.393-2.615 5.372-2.615 3.287 0 5.23 2.12 5.23 5.619v11.203h-4.171zM185.58 30.557l4.17-.565v24.172h-4.17v-1.59c-1.096 1.06-2.58 2.121-4.594 2.121-4.312 0-7.103-3.499-7.103-8.552 0-5.195 3.604-8.799 8.234-8.799 1.166 0 2.439.212 3.463.53v-7.317zm-3.075 10.107c-2.792 0-4.382 2.297-4.382 5.301 0 3.181 1.59 5.195 4.1 5.195 1.378 0 2.438-.495 3.357-1.343v-8.199c-.813-.601-1.838-.954-3.075-.954zM197.025 46.919c.177 2.65 1.979 4.453 4.877 4.453 1.731 0 3.604-.565 5.089-1.484l.53 3.463c-1.555.848-3.71 1.343-5.901 1.343-5.23 0-8.694-3.322-8.694-8.517 0-5.301 3.534-8.834 8.411-8.834 4.312 0 6.714 2.615 6.714 6.608 0 .883-.141 2.014-.354 2.721l-10.672.142v.105zm7.103-2.58v-.283c0-2.191-.954-3.569-3.11-3.569-2.297 0-3.675 1.873-3.887 3.887l6.997-.035zM223.604 37.872v9.93c0 2.403.99 3.181 2.757 3.181 1.484 0 2.792-.671 3.569-1.414v-11.697h4.17v16.186l-4.17.565v-2.403c-1.343 1.449-3.286 2.474-5.371 2.474-3.181 0-5.124-2.121-5.124-5.619v-11.203h4.169zM248.751 54.164v-9.93c0-2.403-.954-3.216-2.827-3.216-1.449 0-2.792.742-3.604 1.52v11.626h-4.17v-16.221l4.17-.565v2.58c1.449-1.59 3.393-2.615 5.372-2.615 3.287 0 5.23 2.12 5.23 5.619v11.203h-4.171zM262.104 54.729c-2.12 0-4.7-.601-6.326-1.52l.919-3.252c1.625.919 3.71 1.52 5.513 1.52 1.626 0 2.686-.672 2.686-1.803 0-1.272-1.378-1.731-3.287-2.191-3.075-.707-5.513-1.979-5.513-5.053 0-3.075 2.58-5.089 6.503-5.089 2.014 0 4.417.53 5.937 1.307l-.918 3.251c-1.59-.813-3.675-1.343-5.124-1.343-1.52 0-2.439.565-2.439 1.625 0 1.237 1.378 1.661 3.287 2.12 3.11.742 5.548 1.944 5.548 5.125-.001 3.041-2.616 5.303-6.786 5.303zM288.895 52.291c-1.166 1.414-2.58 2.403-4.594 2.403-2.934 0-5.054-2.015-5.054-4.594 0-3.004 2.191-5.548 9.647-5.796v-.389c0-2.191-.918-3.11-3.251-3.11-1.661 0-3.675.742-5.407 1.732l-.848-3.287c1.59-.99 4.134-1.908 6.82-1.908 5.018 0 6.962 2.226 6.856 6.714v5.831c0 1.237.212 1.413 1.449 1.484l-.318 3.146c-3.11.354-4.559-.601-5.16-2.227h-.14zm0-5.796c-4.064.495-5.548 1.307-5.548 3.039 0 1.237.954 2.12 2.438 2.12 1.308 0 2.368-.601 3.11-1.414v-3.745zM301.075 37.872v9.93c0 2.403.99 3.181 2.757 3.181 1.484 0 2.792-.671 3.569-1.414v-11.697h4.17v16.186l-4.17.565v-2.403c-1.343 1.449-3.286 2.474-5.371 2.474-3.181 0-5.124-2.121-5.124-5.619v-11.203h4.169zM325.505 33.95c-.778-.354-1.696-.672-2.651-.672-1.52 0-2.155.884-2.155 2.898v1.802h4.841l-.106 3.428h-4.629v12.757h-4.17v-12.722l-2.827-.212.142-2.65 2.65-.778.035-1.731c.106-4.665 2.262-6.502 5.902-6.502 1.59 0 3.039.459 3.852.813-.001.035-.884 3.604-.884 3.569zM129.191 68.89h23.251v5.925h-16.489v9.222h13.415v5.869h-13.415v13.917h-6.763v-34.933zM168.758 100.86c-1.844 2.236-4.08 3.801-7.266 3.801-4.639 0-7.993-3.186-7.993-7.266 0-4.751 3.465-8.775 15.259-9.166v-.615c0-3.465-1.453-4.918-5.142-4.918-2.627 0-5.813 1.174-8.552 2.739l-1.341-5.198c2.515-1.565 6.54-3.018 10.787-3.018 7.937 0 11.011 3.521 10.843 10.62v9.222c0 1.957.336 2.236 2.292 2.348l-.503 4.975c-4.919.559-7.21-.95-8.16-3.521h-.224zm0-9.166c-6.428.783-8.775 2.068-8.775 4.807 0 1.956 1.509 3.354 3.857 3.354 2.068 0 3.745-.95 4.918-2.236v-5.925zM193.161 104.661c-8.384 0-13.358-5.198-13.358-13.638 0-8.384 5.478-13.806 13.582-13.806 3.521 0 6.539.782 8.887 2.18l-1.397 5.31c-2.124-1.342-4.584-2.068-6.987-2.068-4.751 0-7.322 3.242-7.322 8.216 0 5.254 2.962 8.328 7.322 8.328 2.683 0 5.142-.727 7.154-2.012l1.062 5.366c-2.236 1.341-5.478 2.124-8.943 2.124zM211.141 92.365c.28 4.192 3.13 7.042 7.713 7.042 2.739 0 5.701-.895 8.048-2.348l.838 5.478c-2.459 1.341-5.869 2.124-9.334 2.124-8.272 0-13.749-5.254-13.749-13.47 0-8.384 5.589-13.973 13.302-13.973 6.819 0 10.62 4.136 10.62 10.452 0 1.397-.223 3.186-.559 4.304-.056 0-16.88.223-16.88.223v.168zm11.235-4.08v-.447c0-3.465-1.509-5.645-4.919-5.645-3.633 0-5.813 2.962-6.148 6.148l11.067-.056zM245.505 104.605c-1.677 0-4.08-.335-5.757-.895l-6.316.95v-38.174l6.595-.895v14.924c1.732-1.677 4.08-3.298 7.21-3.298 6.819 0 11.29 5.533 11.29 13.47.001 8.217-5.7 13.918-13.022 13.918zm-.168-21.854c-2.18 0-3.856.838-5.31 2.124v13.023c1.23.95 2.906 1.453 4.863 1.453 4.416 0 6.931-3.577 6.931-8.384 0-5.03-2.404-8.216-6.484-8.216zM274.832 104.661c-7.545 0-13.023-5.142-13.023-13.694 0-8.496 5.757-13.806 13.358-13.806 7.602 0 13.023 5.254 13.023 13.75.001 8.44-5.812 13.75-13.358 13.75zm.112-22.189c-4.304 0-6.651 3.465-6.651 8.44 0 4.919 2.459 8.384 6.763 8.384 4.248 0 6.595-3.354 6.595-8.328 0-4.975-2.459-8.496-6.707-8.496zM304.573 104.661c-7.545 0-13.023-5.142-13.023-13.694 0-8.496 5.757-13.806 13.358-13.806s13.023 5.254 13.023 13.75c.001 8.44-5.812 13.75-13.358 13.75zm.112-22.189c-4.304 0-6.651 3.465-6.651 8.44 0 4.919 2.46 8.384 6.763 8.384 4.248 0 6.595-3.354 6.595-8.328 0-4.975-2.459-8.496-6.707-8.496zM329.234 91.415v12.408h-6.595v-37.337l6.595-.895v23.922h.112l9.222-11.458h7.881l-10.675 12.241 10.732 13.526h-7.881l-9.278-12.408h-.113z"/></svg>